<?xml version="1.0" encoding="utf-8"?>
<!-- Svg Vector Icons : http://www.onlinewebfonts.com/icon -->
<!DOCTYPE svg PUBLIC "-//W3C//DTD SVG 1.1//EN" "http://www.w3.org/Graphics/SVG/1.1/DTD/svg11.dtd">
<svg version="1.1" xmlns="http://www.w3.org/2000/svg" xmlns:xlink="http://www.w3.org/1999/xlink" x="0px" y="0px" viewBox="0 0 1000 1000" enable-background="new 0 0 1000 1000" xml:space="preserve">
<metadata> Svg Vector Icons : http://www.onlinewebfonts.com/icon </metadata>
<g><g transform="translate(0.000000,511.000000) scale(0.100000,-0.100000)"><path d="M4508.2,4988.2C2783.4,4822.1,1234.9,3700.3,524.5,2105.8C-58.1,800.1-40.2-694.8,573.1-1990.3C1528.8-4014.1,3774.9-5141,5962.2-4693.8c2884.9,590.3,4612.3,3559.5,3687.3,6342.2C8923.8,3830.6,6802.9,5207.9,4508.2,4988.2z M5854.9,4377.5c587.7-125.2,1185.7-383.3,1648.2-710.4c311.7-219.8,833-741,1052.8-1052.8c329.6-465.1,582.6-1057.9,715.5-1660.9c48.5-235.1,56.2-339.8,56.2-843.2c0-503.4-7.7-608.2-56.2-843.3c-132.9-603-385.9-1195.9-715.5-1660.9c-219.8-311.7-741-833-1052.8-1052.8c-465.1-329.6-1057.9-582.6-1660.9-715.5c-235.1-48.5-339.9-56.2-843.3-56.2s-608.2,7.7-843.2,56.2c-603.1,132.9-1195.9,385.9-1660.9,715.5c-311.8,219.8-833,741-1052.8,1052.8C1112.2-1929,859.3-1336.2,726.4-733.1c-48.5,235.1-56.2,339.8-56.2,843.3c0,503.4,7.7,608.2,56.2,843.2c186.5,853.5,557.1,1558.7,1142.2,2166.9c666.9,697.6,1515.3,1137.1,2483.7,1295.5C4692.2,4472,5517.6,4451.6,5854.9,4377.5z"/><path d="M7664,1004.5c-329.6-69-605.6-365.4-656.7-702.7c-12.8-94.6-7.7-107.3,76.7-163.5c168.7-115,327.1-365.4,380.8-603.1c28.1-117.5,38.3-130.3,130.3-158.4c281.1-84.3,597.9-7.7,817.7,201.9c186.6,176.3,253,332.2,253,608.2c0,186.5-10.2,237.6-71.5,362.9C8430.6,881.8,8026.9,1081.1,7664,1004.5z"/><path d="M1991.3,978.9C1746,927.8,1516,751.5,1403.5,524.1c-61.3-125.2-71.5-176.3-71.5-362.9c0-181.4,10.2-240.2,66.4-357.7c135.4-286.2,391-460,700.1-477.8c107.3-7.7,224.9,2.6,291.3,23c107.3,33.2,115,40.9,143.1,161c43.4,191.6,150.8,378.2,296.4,521.3c74.1,71.5,140.5,130.3,153.3,130.3c12.8,0,15.3,38.3,7.7,84.3c-66.4,375.6-291.3,631.2-636.3,720.6C2188,1007,2152.3,1009.6,1991.3,978.9z"/><path d="M3253.6,110.1c-181.4-69-329.6-204.4-426.7-388.4c-81.8-148.2-89.4-178.9-89.4-391c0-217.2,5.1-240.2,92-396.1c166.1-304.1,434.4-449.7,787-429.3c263.2,17.9,378.2,74.1,414,209.5c46,166.1,145.6,345,270.9,477.9c107.3,115,115,130.3,99.7,219.7c-58.8,322-222.3,549.4-488.1,674.6c-127.8,61.3-186.5,74.1-345,74.1C3442.7,158.7,3332.8,140.8,3253.6,110.1z"/><path d="M6125.7,107.6c-250.4-99.7-460-360.3-503.4-631.2c-15.3-104.8-12.8-109.9,135.4-253c166.1-161,273.4-345,316.8-541.7c25.5-120.1,30.7-125.2,140.5-155.9c161-46,457.4-20.4,592.8,48.6c299,153.3,467.6,426.7,467.6,756.4c0,329.6-166.1,600.5-467.6,756.4C6644.5,171.5,6314.8,181.7,6125.7,107.6z"/><path d="M4820-730.5c-230-74.1-444.6-263.2-541.7-475.3c-46-102.2-58.8-171.2-58.8-345c2.6-196.8,10.2-232.5,89.4-378.2c130.3-245.3,324.5-385.8,595.4-436.9c370.5-69,746.2,130.3,907.1,480.4c97.1,207,94.6,493.2-2.5,695c-79.2,161-237.7,322-406.3,408.8C5285-720.3,4942.6-689.7,4820-730.5z"/><path d="M7492.8-763.8c-5.1-17.9-17.9-79.2-25.6-135.4c-17.9-127.8-148.2-393.5-230-470.2l-66.4-61.3l186.5-89.4c327.1-158.4,600.5-490.6,689.9-843.3c17.9-74.1,43.4-138,58.8-140.5c40.9-7.7,311.7,396.1,465.1,697.6c84.3,161,189.1,414,237.6,557.1l86.9,265.8l-76.7,61.3c-176.3,143.1-319.4,173.8-838.1,184C7600.1-730.5,7500.5-735.7,7492.8-763.8z"/><path d="M1472.5-807.2c-150.8-48.6-357.7-166.1-357.7-204.4c0-74.1,204.4-592.8,322-820.3c138-263.2,406.3-666.9,457.4-682.3c15.3-5.1,40.9,48.6,56.2,117.6c81.8,342.4,360.3,689.9,677.2,845.8c178.9,86.9,191.6,115,89.4,199.3c-56.2,48.6-173.8,327.1-194.2,459.9l-15.3,120.1l-447.2,5.1C1689.7-761.2,1587.5-768.9,1472.5-807.2z"/><path d="M2898.4-1624.9c-311.7-99.7-528.9-288.8-666.9-585.2c-61.3-132.9-81.8-212.1-89.4-375.6l-10.2-207l181.4-168.7c263.2-242.7,822.8-613.3,1014.5-669.5c51.1-15.3,56.2-5.1,71.5,168.7c23,227.4,94.6,452.3,196.8,610.7c115,184,357.7,398.6,546.8,485.5l166.1,79.2l-79.2,92c-107.3,122.7-199.3,329.6-219.8,488.1l-15.3,130.3l-475.3-2.5C3133.5-1578.9,3015.9-1586.6,2898.4-1624.9z"/><path d="M6084.8-1701.6c-20.4-148.2-127.8-388.4-227.4-506l-69-81.7l173.8-81.8c207-99.7,480.4-357.7,574.9-546.8c94.6-186.5,148.2-385.8,148.2-554.5c0-81.8,7.7-148.2,17.9-148.2c33.2,0,360.3,191.7,577.5,339.9c125.2,84.3,311.7,232.5,416.5,329.6c171.2,163.6,189.1,186.5,189.1,276c0,500.8-365.4,960.8-845.8,1070.7c-61.3,15.3-299,28.1-526.4,28.1h-411.4L6084.8-1701.6z"/><path d="M4449.5-2480.9c-327.1-79.2-592.8-293.9-735.9-595.4c-74.1-158.4-81.8-194.2-81.8-426.7v-255.5l181.4-56.2c774.2-245.3,1630.3-237.7,2432.6,17.9l235.1,76.7v173.8c0,526.4-352.6,963.3-863.7,1073.2C5438.4-2434.9,4613-2440,4449.5-2480.9z"/></g></g>
</svg>