<svg version="1.1" viewBox="0.0 0.0 703.9448818897638 576.6824146981627" fill="none" stroke="none" stroke-linecap="square" stroke-miterlimit="10" xmlns:xlink="http://www.w3.org/1999/xlink" xmlns="http://www.w3.org/2000/svg"><clipPath id="p.0"><path d="m0 0l703.9449 0l0 576.68243l-703.9449 0l0 -576.68243z" clip-rule="nonzero"/></clipPath><g clip-path="url(#p.0)"><path fill="#000000" fill-opacity="0.0" d="m0 0l703.9449 0l0 576.68243l-703.9449 0z" fill-rule="evenodd"/><path fill="#000000" fill-opacity="0.0" d="m150.93327 78.7664l402.07874 0l0 419.1496l-402.07874 0z" fill-rule="evenodd"/><path fill="#2e343d" d="m320.08954 471.76642l-61.515625 -94.734375l-23.437515 24.8125l0 69.921875l-48.828125 0l0 -287.10938l48.828125 -11.71875l0 169.92189l69.718765 -80.28125l58.796875 0l-70.703125 79.296875l85.15625 129.89062l-58.015625 0z" fill-rule="nonzero"/><path fill="#ff9d5a" d="m426.15204 471.76642l-43.953125 0l108.015625 -287.3125l43.546875 0l-107.609375 287.3125z" fill-rule="nonzero"/></g></svg>