<svg version="1.1" viewBox="0.0 0.0 374.6089238845144 168.9711286089239" fill="none" stroke="none" stroke-linecap="square" stroke-miterlimit="10" xmlns:xlink="http://www.w3.org/1999/xlink" xmlns="http://www.w3.org/2000/svg"><clipPath id="p.0"><path d="m0 0l374.60892 0l0 168.97113l-374.60892 0l0 -168.97113z" clip-rule="nonzero"/></clipPath><g clip-path="url(#p.0)"><path fill="#000000" fill-opacity="0.0" d="m0 0l374.60892 0l0 168.97113l-374.60892 0z" fill-rule="evenodd"/><path fill="#000000" fill-opacity="0.0" d="m0 -43.40814l771.1496 0l0 261.7953l-771.1496 0z" fill-rule="evenodd"/><path fill="#212529" d="m103.140625 114.91999l0 36.124992q0 9.09375 -8.890625 9.09375q-10.34375 0 -10.34375 -14.171875q0 -1.75 0.1875 -4.96875q0.203125 -3.234375 0.203125 -4.40625l-0.09375 -22.171867l-43.078125 -1.0625q-13.375 0 -18.546875 -0.890625q-8.890625 -1.453125 -8.890625 -6.921875q0 -4.40625 5.375 -11.140625l8.390625 -9.953125l48.046875 -70.125q6.546875 -9.078125 16.609375 -9.078125q11.03125 0 11.03125 9.5625l0 81.15625q1.65625 -0.09375 4.0 -0.09375q17.96875 0 17.96875 9.671875q0 7.03125 -7.421875 8.875q-3.3125 0.890625 -14.546875 0.5zm-18.9375 -82.625q-26.078125 41.60938 -40.734375 62.312504l40.734375 0.96875l0 -63.281254zm106.53906 129.10938q-29.6875 0 -43.359375 -27.15625q-10.359375 -20.890617 -10.359375 -54.390617q0 -28.328129 13.484375 -49.421875q15.921875 -24.703125 43.265625 -24.703125q25.671875 0 40.03125 21.875q12.40625 18.953123 12.40625 46.1875q0 43.75 -13.875 65.68749q-13.859375 21.921875 -41.59375 21.921875zm2.921875 -136.82812q-18.15625 0 -28.796875 18.468748q-8.890625 15.421875 -8.890625 35.250004q0 32.125 8.6875 48.25q8.6875 16.109367 26.078125 16.109367q20.703125 0 29.6875 -23.640617q6.25 -16.40625 6.25 -41.59375q0 -26.468754 -8.25 -39.656254q-8.25 -13.187498 -24.765625 -13.187498zm153.61719 90.34375l0 36.124992q0 9.09375 -8.890625 9.09375q-10.34375 0 -10.34375 -14.171875q0 -1.75 0.1875 -4.96875q0.203125 -3.234375 0.203125 -4.40625l-0.09375 -22.171867l-43.078125 -1.0625q-13.375 0 -18.546875 -0.890625q-8.890625 -1.453125 -8.890625 -6.921875q0 -4.40625 5.375 -11.140625l8.390625 -9.953125l48.046875 -70.125q6.546875 -9.078125 16.609375 -9.078125q11.03125 0 11.03125 9.5625l0 81.15625q1.65625 -0.09375 4.0 -0.09375q17.96875 0 17.96875 9.671875q0 7.03125 -7.421875 8.875q-3.3125 0.890625 -14.546875 0.5zm-18.9375 -82.625q-26.078125 41.60938 -40.734375 62.312504l40.734375 0.96875l0 -63.281254z" fill-rule="nonzero"/></g></svg>